<svg class="svg-icon" style="width: 1em; height: 1em;vertical-align: middle;fill: currentColor;overflow: hidden;" viewBox="0 0 1024 1024" version="1.1" xmlns="http://www.w3.org/2000/svg"><path d="M522 723.22v124.94c0 5.52-4.48 10-10 10s-10-4.48-10-10v-124.94c0-5.54 4.48-10 10-10s10 4.46 10 10zM569.94 723.22v81.58c0 5.52-4.48 10-10 10s-10-4.48-10-10v-81.58c0-5.54 4.48-10 10-10s10 4.46 10 10zM617.88 683.18v85.5c0 5.52-4.48 10-10 10s-10-4.48-10-10v-85.5c0-5.54 4.48-10 10-10s10 4.46 10 10zM426.12 683.18v85.5c0 5.52-4.48 10-10 10s-10-4.48-10-10v-85.5c0-5.54 4.48-10 10-10s10 4.46 10 10zM474.06 723.22v81.58c0 5.52-4.48 10-10 10s-10-4.48-10-10v-81.58c0-5.54 4.48-10 10-10s10 4.46 10 10z" fill="#FFFFFF" /><path d="M752.72 574.08c-0.12 0-0.22-0.04-0.32-0.04h-25.06c-1.36-21.22-5.44-41.52-12.28-60.84-17.5-49.42-48.96-80.12-68.96-95.62 17.04-128.28-19.02-227.72-52.62-288.86-35.12-63.88-73.24-98.1-74.84-99.52-0.06-0.04-0.1-0.08-0.16-0.12-0.06-0.06-0.14-0.1-0.2-0.14-0.22-0.2-0.46-0.36-0.72-0.54-0.16-0.1-0.32-0.24-0.48-0.34-0.16-0.08-0.3-0.14-0.44-0.22-0.24-0.12-0.48-0.24-0.72-0.34-0.2-0.08-0.38-0.16-0.56-0.24-0.18-0.06-0.36-0.1-0.54-0.16-0.22-0.06-0.44-0.12-0.68-0.16-0.2-0.04-0.38-0.1-0.58-0.12-0.2-0.04-0.42-0.06-0.62-0.08-0.22-0.02-0.42-0.04-0.64-0.04h-0.58c-0.24 0-0.46 0.02-0.68 0.04-0.2 0.02-0.4 0.04-0.58 0.08-0.2 0.02-0.38 0.06-0.58 0.1-0.24 0.06-0.48 0.12-0.72 0.2-0.18 0.04-0.34 0.08-0.52 0.14-0.18 0.08-0.34 0.16-0.52 0.24-0.26 0.1-0.52 0.22-0.76 0.36-0.14 0.06-0.3 0.12-0.42 0.2-0.18 0.1-0.32 0.22-0.48 0.34-0.26 0.16-0.5 0.34-0.76 0.54-0.04 0.04-0.1 0.08-0.16 0.12-0.06 0.06-0.12 0.08-0.18 0.14-1.6 1.42-39.72 35.64-74.84 99.52-33.6 61.14-69.66 160.58-52.62 288.86-20 15.5-51.46 46.22-68.96 95.62-6.86 19.36-10.94 39.72-12.3 61-87.82 2.92-158.36 75.24-158.36 163.76 0 90.38 73.52 163.9 163.9 163.9 12.98 0 25.8-1.52 38.24-4.48 38.46 61.84 106.66 99.94 179.78 99.94 96.86 0 181.48-66.42 205.1-159.36 8.86 1.84 17.94 2.78 27.08 2.78 73.52 0 133.34-59.8 133.34-133.34 0-73.4-59.64-133.14-133-133.32z m-56.52-54.2c7.1 20.02 10.94 41.28 11.56 63.72 0 0.16-0.04 0.3-0.04 0.44 0 0.24 0.06 0.44 0.06 0.68 0.84 36.16-6.68 75.36-22.54 117.28-9-41.62-30.76-108.96-79.84-136.2 17.34-42.02 29.78-84.02 37.14-125.24 17.58 15.46 40.18 41.24 53.66 79.32zM453 129.6c1.16-1.98 2.3-3.92 3.46-5.84 0.2-0.36 0.42-0.72 0.62-1.06 1.36-2.24 2.7-4.42 4.04-6.56l0.72-1.14c1.14-1.78 2.26-3.54 3.38-5.26 0.3-0.46 0.6-0.92 0.9-1.36 2.68-4.06 5.32-7.92 7.92-11.6 0.3-0.44 0.58-0.86 0.88-1.28 1.14-1.58 2.26-3.16 3.38-4.68l0.48-0.66c1.28-1.74 2.56-3.44 3.8-5.08 0.22-0.3 0.44-0.58 0.66-0.88 1.06-1.38 2.1-2.72 3.12-4.02 0.24-0.32 0.48-0.64 0.72-0.94 1.22-1.54 2.4-3.04 3.58-4.48v-0.02c1.16-1.42 2.28-2.78 3.38-4.1 0.22-0.28 0.46-0.56 0.7-0.84 1-1.2 2-2.38 2.98-3.52 0.06-0.08 0.14-0.16 0.2-0.24 1.08-1.26 2.1-2.44 3.12-3.58l0.46-0.52c0.86-0.98 1.7-1.9 2.5-2.8 0.14-0.16 0.3-0.34 0.46-0.5 1.82-2.02 3.52-3.82 5.04-5.44l0.42-0.42c0.72-0.76 1.44-1.48 2.08-2.16 9.3 9.5 27.18 29.26 46.2 58.24 0.04 0.06 0.08 0.14 0.12 0.2 1.4 2.12 2.8 4.28 4.2 6.5 0.06 0.12 0.14 0.24 0.22 0.36 1.4 2.22 2.8 4.48 4.2 6.8l0.6 1.02c1.12 1.88 2.26 3.78 3.38 5.72 0.2 0.36 0.4 0.7 0.6 1.06-17.78 11.32-38.18 17.26-59.52 17.26s-41.74-5.94-59.52-17.26c0.18-0.3 0.34-0.62 0.52-0.92z m-10.12 18.48c20.72 12.92 44.38 19.7 69.12 19.7 12.36 0 24.48-1.7 36.06-5a130 130 0 0 0 33.06-14.7c31.04 60.02 61.64 153.5 44.4 272.54-6.92 47.76-21.1 96.9-42.18 146.02a726.16 726.16 0 0 1-15.8 34.28h-111.08c-5.64-11.48-10.96-23-15.8-34.28-21.06-49.12-35.26-98.26-42.18-146.02-17.24-119.04 13.36-212.5 44.4-272.54z m0.48 482v-9.16h6.84c0.02 0 0.04 0.02 0.04 0.02 0.04 0 0.06-0.02 0.08-0.02h123.36c0.02 0 0.04 0.02 0.08 0.02 0 0 0.02-0.02 0.04-0.02h6.84v9.16h-137.28z m106.54 20v25.18h-75.8v-25.18h75.8z m-233.68-65.36c0-0.22 0.06-0.44 0.06-0.68 0-0.16-0.04-0.3-0.04-0.44 0.62-22.44 4.46-43.7 11.56-63.72 13.48-38.06 36.08-63.84 53.66-79.32 7.36 41.22 19.82 83.22 37.14 125.24-49.08 27.24-70.84 94.58-79.84 136.2-15.86-41.92-23.38-81.1-22.54-117.28z m436.16 236.02c-10.8 0-21.48-1.52-31.76-4.54-22.08-6.42-41.48-19.3-56.12-37.26a9.978 9.978 0 0 0-14.06-1.42 10 10 0 0 0-1.44 14.06c15.2 18.66 34.8 32.64 57.08 40.86-21.18 84.46-97.98 144.88-185.88 144.88-68.54 0-132.3-36.96-166.38-96.5-16.54-28.8-25.26-61.7-25.26-95.12 0-2.1 0.04-4.18 0.1-6.26a10.008 10.008 0 0 0-9.74-10.26h-0.26c-5.42 0-9.86 4.32-10 9.74-0.06 2.26-0.1 4.52-0.1 6.78 0 32.48 7.48 64.52 21.7 93.42-9.18 1.82-18.58 2.74-28.08 2.74-79.34 0-143.9-64.54-143.9-143.9 0-77.34 61.32-140.58 137.9-143.76 0.7 45.44 13.26 94.82 37.66 147.68a9.976 9.976 0 0 0 10.74 5.66 9.98 9.98 0 0 0 8.28-8.86c0.12-1.24 12.5-118.42 73.68-154.42 2.46 5.54 5.06 11.1 7.7 16.66h-0.88c-5.52 0-10 4.48-10 10v29.16c0 5.52 4.48 10 10 10h20.74v35.18c0 5.54 4.48 10 10 10h95.8c5.52 0 10-4.46 10-10v-35.18h20.74c5.52 0 10-4.48 10-10v-29.16c0-5.52-4.48-10-10-10h-0.88c2.64-5.56 5.24-11.14 7.7-16.66 61.06 35.98 73.56 153.18 73.68 154.42a9.98 9.98 0 0 0 9.94 9c3.86 0 7.44-2.22 9.08-5.8 24.42-52.92 36.98-102.36 37.68-147.84h24.3c0.08 0 0.16 0.02 0.24 0.02 62.5 0 113.34 50.86 113.34 113.34 0 62.5-50.84 113.34-113.34 113.34z" fill="#23130D" /><path d="M580.64 620.92v9.16h-137.28v-9.16h6.84c0.02 0 0.04 0.02 0.04 0.02 0.04 0 0.06-0.02 0.08-0.02h123.36c0.02 0 0.04 0.02 0.08 0.02 0 0 0.02-0.02 0.04-0.02h6.84zM474.1 650.08h75.8v25.18h-75.8z" fill="#636368" /><path d="M571.52 130.52c-17.78 11.32-38.18 17.26-59.52 17.26s-41.74-5.94-59.52-17.26c0.18-0.3 0.34-0.62 0.52-0.92 1.16-1.98 2.3-3.92 3.46-5.84 0.2-0.36 0.42-0.72 0.62-1.06 1.36-2.24 2.7-4.42 4.04-6.56l0.72-1.14c1.14-1.78 2.26-3.54 3.38-5.26 0.3-0.46 0.6-0.92 0.9-1.36 2.68-4.06 5.32-7.92 7.92-11.6 0.3-0.44 0.58-0.86 0.88-1.28 1.14-1.58 2.26-3.16 3.38-4.68l0.48-0.66c1.28-1.74 2.56-3.44 3.8-5.08 0.22-0.3 0.44-0.58 0.66-0.88 1.06-1.38 2.1-2.72 3.12-4.02 0.24-0.32 0.48-0.64 0.72-0.94 1.22-1.54 2.4-3.04 3.58-4.48v-0.02c1.16-1.42 2.28-2.78 3.38-4.1 0.22-0.28 0.46-0.56 0.7-0.84 1-1.2 2-2.38 2.98-3.52 0.06-0.08 0.14-0.16 0.2-0.24 1.08-1.26 2.1-2.44 3.12-3.58l0.46-0.52c0.86-0.98 1.7-1.9 2.5-2.8 0.14-0.16 0.3-0.34 0.46-0.5 1.82-2.02 3.52-3.82 5.04-5.44l0.42-0.42c0.72-0.76 1.44-1.48 2.08-2.16 9.3 9.5 27.18 29.26 46.2 58.24 0.04 0.06 0.08 0.14 0.12 0.2 1.4 2.12 2.8 4.28 4.2 6.5 0.06 0.12 0.14 0.24 0.22 0.36 1.4 2.22 2.8 4.48 4.2 6.8l0.6 1.02c1.12 1.88 2.26 3.78 3.38 5.72 0.2 0.36 0.4 0.7 0.6 1.06z" fill="#EC7063" /><path d="M752.38 594.06c-0.08 0-0.16-0.02-0.24-0.02h-24.3c-0.7 45.48-13.26 94.92-37.68 147.84a9.976 9.976 0 0 1-10.74 5.66 9.98 9.98 0 0 1-8.28-8.86c-0.12-1.24-12.62-118.44-73.68-154.42a765.86 765.86 0 0 1-7.7 16.66h0.88c5.52 0 10 4.48 10 10v29.16c0 5.52-4.48 10-10 10h-20.74v35.18c0 5.54-4.48 10-10 10h-95.8c-5.52 0-10-4.46-10-10v-35.18h-20.74c-5.52 0-10-4.48-10-10v-29.16c0-5.52 4.48-10 10-10h0.88c-2.64-5.56-5.24-11.12-7.7-16.66-61.18 36-73.56 153.18-73.68 154.42a9.98 9.98 0 0 1-9.94 9c-3.86 0-7.44-2.22-9.08-5.8-24.4-52.86-36.96-102.24-37.66-147.68-76.58 3.18-137.9 66.42-137.9 143.76 0 79.36 64.56 143.9 143.9 143.9 9.5 0 18.9-0.92 28.08-2.74-14.22-28.9-21.7-60.94-21.7-93.42 0-2.26 0.04-4.52 0.1-6.78a10.004 10.004 0 0 1 10-9.74h0.26c5.52 0.14 9.88 4.74 9.74 10.26-0.06 2.08-0.1 4.16-0.1 6.26 0 33.42 8.72 66.32 25.26 95.12 34.08 59.54 97.84 96.5 166.38 96.5 87.9 0 164.7-60.42 185.88-144.88-22.28-8.22-41.88-22.2-57.08-40.86a10 10 0 0 1 1.44-14.06 9.978 9.978 0 0 1 14.06 1.42c14.64 17.96 34.04 30.84 56.12 37.26a112.582 112.582 0 0 0 31.76 4.54c62.5 0 113.34-50.84 113.34-113.34 0-62.48-50.84-113.34-113.34-113.34zM426.12 830.74c0 5.54-4.48 10-10 10s-10-4.46-10-10V804.8c0-5.52 4.48-10 10-10s10 4.48 10 10v25.94z m0-62.06c0 5.52-4.48 10-10 10s-10-4.48-10-10v-85.5c0-5.54 4.48-10 10-10s10 4.46 10 10v85.5z m47.94 36.12c0 5.52-4.48 10-10 10s-10-4.48-10-10v-81.58c0-5.54 4.48-10 10-10s10 4.46 10 10v81.58zM522 848.16c0 5.52-4.48 10-10 10s-10-4.48-10-10v-124.94c0-5.54 4.48-10 10-10s10 4.46 10 10v124.94z m47.94-43.36c0 5.52-4.48 10-10 10s-10-4.48-10-10v-81.58c0-5.54 4.48-10 10-10s10 4.46 10 10v81.58z m47.94 25.94c0 5.54-4.48 10-10 10s-10-4.46-10-10V804.8c0-5.52 4.48-10 10-10s10 4.48 10 10v25.94z m0-62.06c0 5.52-4.48 10-10 10s-10-4.48-10-10v-85.5c0-5.54 4.48-10 10-10s10 4.46 10 10v85.5z" fill="#F9C139" /><path d="M685.24 702c-9-41.62-30.76-108.96-79.84-136.2 17.34-42.02 29.78-84.02 37.14-125.24 17.58 15.46 40.18 41.24 53.66 79.32 7.1 20.02 10.94 41.28 11.56 63.72 0 0.16-0.04 0.3-0.04 0.44 0 0.24 0.06 0.44 0.06 0.68 0.84 36.16-6.68 75.36-22.54 117.28zM418.6 565.8c-49.08 27.24-70.84 94.58-79.84 136.2-15.86-41.92-23.38-81.1-22.54-117.28 0-0.22 0.06-0.44 0.06-0.68 0-0.16-0.04-0.3-0.04-0.44 0.62-22.44 4.46-43.7 11.56-63.72 13.48-38.06 36.08-63.84 53.66-79.32 7.36 41.22 19.82 83.22 37.14 125.24z" fill="#EC7063" /><path d="M418.6 565.8c-49.08 27.24-70.84 94.58-79.84 136.2-5.42-14.36-9.88-28.38-13.34-42.08 12.54-35.94 33.56-74.96 68.08-94.12-14.32-34.74-25.32-69.48-32.84-103.76 7.12-8.64 14.32-15.76 20.8-21.48 7.36 41.22 19.82 83.22 37.14 125.24zM605.4 565.8c49.08 27.24 70.84 94.58 79.84 136.2 5.42-14.36 9.88-28.38 13.34-42.08-12.54-35.94-33.56-74.96-68.08-94.12 14.32-34.74 25.32-69.48 32.84-103.76a189.158 189.158 0 0 0-20.8-21.48c-7.36 41.22-19.82 83.22-37.14 125.24z" fill="#23130D" opacity=".2" /><path d="M581.12 148.08a130 130 0 0 1-33.06 14.7 131.49 131.49 0 0 1-36.06 5c-24.74 0-48.4-6.78-69.12-19.7-31.04 60.04-61.64 153.5-44.4 272.54 6.92 47.76 21.12 96.9 42.18 146.02 4.84 11.28 10.16 22.8 15.8 34.28h111.08a726.16 726.16 0 0 0 15.8-34.28c21.08-49.12 35.26-98.26 42.18-146.02 17.24-119.04-13.36-212.52-44.4-272.54zM512 357.62c-32.14 0-58.28-26.16-58.28-58.28 0-32.14 26.14-58.28 58.28-58.28s58.28 26.14 58.28 58.28c0 32.12-26.14 58.28-58.28 58.28z" fill="#E1E1E5" /><path d="M483.18 130.52a109.656 109.656 0 0 0 44.18 16.22c-5.04 0.7-10.18 1.04-15.36 1.04-21.34 0-41.74-5.94-59.52-17.26 0.18-0.3 0.34-0.62 0.52-0.92 1.16-1.98 2.3-3.92 3.46-5.84 0.2-0.36 0.42-0.72 0.62-1.06 1.36-2.24 2.7-4.42 4.04-6.56l0.72-1.14c1.14-1.78 2.26-3.54 3.38-5.26 0.3-0.46 0.6-0.92 0.9-1.36 2.68-4.06 5.32-7.92 7.92-11.6 0.3-0.44 0.58-0.86 0.88-1.28 1.14-1.58 2.26-3.16 3.38-4.68l0.48-0.66c1.28-1.74 2.56-3.44 3.8-5.08 0.22-0.3 0.44-0.58 0.66-0.88 1.06-1.38 2.1-2.72 3.12-4.02 0.24-0.32 0.48-0.64 0.72-0.94 1.22-1.54 2.4-3.04 3.58-4.48v-0.02c1.16-1.42 2.28-2.78 3.38-4.1 0.22-0.28 0.46-0.56 0.7-0.84 1-1.2 2-2.38 2.98-3.52 0.06-0.08 0.14-0.16 0.2-0.24 1.08-1.26 2.1-2.44 3.12-3.58l0.46-0.52c0.86-0.98 1.7-1.9 2.5-2.8 0.14-0.16 0.3-0.34 0.46-0.5 1.82-2.02 3.52-3.82 5.04-5.44l0.42-0.42c0.72-0.76 1.44-1.48 2.08-2.16 3.82 3.9 9.12 9.56 15.36 16.9-0.64 0.74-1.28 1.5-1.92 2.28-0.24 0.28-0.48 0.56-0.7 0.84-1.1 1.32-2.22 2.68-3.38 4.1v0.02c-1.18 1.44-2.36 2.94-3.58 4.48-0.24 0.3-0.48 0.62-0.72 0.94-1.02 1.3-2.06 2.64-3.12 4.02-0.22 0.3-0.44 0.58-0.66 0.88-1.24 1.64-2.52 3.34-3.8 5.08l-0.48 0.66c-1.12 1.52-2.24 3.1-3.38 4.68-0.3 0.42-0.58 0.84-0.88 1.28-2.6 3.68-5.24 7.54-7.92 11.6-0.3 0.44-0.6 0.9-0.9 1.36-1.12 1.72-2.24 3.48-3.38 5.26l-0.72 1.14c-1.34 2.14-2.68 4.32-4.04 6.56-0.2 0.34-0.42 0.7-0.62 1.06-1.16 1.92-2.3 3.86-3.46 5.84-0.18 0.3-0.34 0.62-0.52 0.92zM471.36 566.64c-21.06-49.12-35.26-98.26-42.18-146.02-16.12-111.38 9.62-200.36 38.44-260.52-8.6-3.1-16.88-7.12-24.74-12.02-31.04 60.04-61.64 153.5-44.4 272.54 6.92 47.76 21.12 96.9 42.18 146.02 4.84 11.28 10.16 22.8 15.8 34.28h30.7c-5.64-11.48-10.96-23-15.8-34.28z" fill="#23130D" opacity=".2" /><path d="M512 241.06c-32.14 0-58.28 26.14-58.28 58.28 0 32.12 26.14 58.28 58.28 58.28s58.28-26.16 58.28-58.28c0-32.14-26.14-58.28-58.28-58.28z m0 96.56c-21.1 0-38.28-17.18-38.28-38.28s17.18-38.28 38.28-38.28 38.28 17.18 38.28 38.28-17.18 38.28-38.28 38.28z" fill="#23130D" /><path d="M550.28 299.34c0 3.44-0.46 6.78-1.32 9.96-1.18 4.36-3.1 8.42-5.66 12.02-1.5 2.16-3.22 4.14-5.14 5.94-1.84 1.74-3.86 3.28-6.02 4.62-1.12 0.7-2.28 1.34-3.48 1.92-3.28 1.58-6.8 2.72-10.52 3.32-2 0.34-4.04 0.5-6.14 0.5-21.1 0-38.28-17.18-38.28-38.28 0-2.08 0.16-4.14 0.5-6.14 0.6-3.7 1.74-7.24 3.32-10.52 0.58-1.2 1.22-2.36 1.92-3.48 1.34-2.16 2.88-4.18 4.62-6.02 1.8-1.9 3.78-3.64 5.94-5.14 3.6-2.56 7.66-4.48 12.02-5.66 3.18-0.86 6.52-1.32 9.96-1.32 21.1 0 38.28 17.18 38.28 38.28z" fill="#3594BF" /><path d="M426.12 804.8v25.94c0 5.54-4.48 10-10 10s-10-4.46-10-10V804.8c0-5.52 4.48-10 10-10s10 4.48 10 10zM617.88 804.8v25.94c0 5.54-4.48 10-10 10s-10-4.46-10-10V804.8c0-5.52 4.48-10 10-10s10 4.48 10 10z" fill="#FFFFFF" /><path d="M474.1 650.08h4.22v25.18h-4.22zM485.4 650.08h7.24v25.18h-7.24zM499.72 650.08h7.24v25.18h-7.24zM514.06 650.08h7.24v25.18h-7.24zM528.38 650.08h7.24v25.18h-7.24zM542.7 650.08h7.2v25.18h-7.2z" fill="#FFFFFF" opacity=".3" /><path d="M528.66 333.8c-3.28 1.58-6.8 2.72-10.52 3.32l-43.92-43.92c0.6-3.7 1.74-7.24 3.32-10.52l51.12 51.12zM538.16 327.26c-1.84 1.74-3.86 3.28-6.02 4.62l-52.68-52.68c1.34-2.16 2.88-4.18 4.62-6.02l54.08 54.08zM548.96 309.3c-1.18 4.36-3.1 8.42-5.66 12.02l-53.28-53.28c3.6-2.56 7.66-4.48 12.02-5.66l46.92 46.92z" fill="#FFFFFF" opacity=".4" /></svg>